<svg width="100" height="100" xmlns="http://www.w3.org/2000/svg">
  <!-- Blue dotted background pattern -->
  <rect width="100" height="100" fill="#4983FF" />
  
  <!-- Pattern of dots with varying opacities -->
  <g fill="#ffffff">
    <!-- Row 1 -->
    <circle cx="10" cy="10" r="1.5" opacity="0.15" />
    <circle cx="20" cy="10" r="1" opacity="0.1" />
    <circle cx="30" cy="10" r="1.5" opacity="0.15" />
    <circle cx="40" cy="10" r="1" opacity="0.1" />
    <circle cx="50" cy="10" r="0.5" opacity="0.05" />
    <circle cx="60" cy="10" r="1.5" opacity="0.15" />
    <circle cx="70" cy="10" r="1" opacity="0.1" />
    <circle cx="80" cy="10" r="1.5" opacity="0.15" />
    <circle cx="90" cy="10" r="1" opacity="0.1" />
    
    <!-- Row 2 -->
    <circle cx="5" cy="20" r="1" opacity="0.1" />
    <circle cx="15" cy="20" r="1.5" opacity="0.15" />
    <circle cx="25" cy="20" r="1" opacity="0.1" />
    <circle cx="35" cy="20" r="0.5" opacity="0.05" />
    <circle cx="45" cy="20" r="1.5" opacity="0.15" />
    <circle cx="55" cy="20" r="1" opacity="0.1" />
    <circle cx="65" cy="20" r="1.5" opacity="0.15" />
    <circle cx="75" cy="20" r="1" opacity="0.1" />
    <circle cx="85" cy="20" r="0.5" opacity="0.05" />
    <circle cx="95" cy="20" r="1.5" opacity="0.15" />
    
    <!-- Row 3 -->
    <circle cx="10" cy="30" r="1.5" opacity="0.15" />
    <circle cx="20" cy="30" r="1" opacity="0.1" />
    <circle cx="30" cy="30" r="0.5" opacity="0.05" />
    <circle cx="40" cy="30" r="1.5" opacity="0.15" />
    <circle cx="50" cy="30" r="1" opacity="0.1" />
    <circle cx="60" cy="30" r="1.5" opacity="0.15" />
    <circle cx="70" cy="30" r="1" opacity="0.1" />
    <circle cx="80" cy="30" r="0.5" opacity="0.05" />
    <circle cx="90" cy="30" r="1.5" opacity="0.15" />
    
    <!-- Row 4 -->
    <circle cx="5" cy="40" r="1" opacity="0.1" />
    <circle cx="15" cy="40" r="0.5" opacity="0.05" />
    <circle cx="25" cy="40" r="1.5" opacity="0.15" />
    <circle cx="35" cy="40" r="1" opacity="0.1" />
    <circle cx="45" cy="40" r="1.5" opacity="0.15" />
    <circle cx="55" cy="40" r="1" opacity="0.1" />
    <circle cx="65" cy="40" r="0.5" opacity="0.05" />
    <circle cx="75" cy="40" r="1.5" opacity="0.15" />
    <circle cx="85" cy="40" r="1" opacity="0.1" />
    <circle cx="95" cy="40" r="1.5" opacity="0.15" />
    
    <!-- Row 5 -->
    <circle cx="10" cy="50" r="0.5" opacity="0.05" />
    <circle cx="20" cy="50" r="1.5" opacity="0.15" />
    <circle cx="30" cy="50" r="1" opacity="0.1" />
    <circle cx="40" cy="50" r="1.5" opacity="0.15" />
    <circle cx="50" cy="50" r="1" opacity="0.1" />
    <circle cx="60" cy="50" r="0.5" opacity="0.05" />
    <circle cx="70" cy="50" r="1.5" opacity="0.15" />
    <circle cx="80" cy="50" r="1" opacity="0.1" />
    <circle cx="90" cy="50" r="1.5" opacity="0.15" />
    
    <!-- Row 6 -->
    <circle cx="5" cy="60" r="1.5" opacity="0.15" />
    <circle cx="15" cy="60" r="1" opacity="0.1" />
    <circle cx="25" cy="60" r="1.5" opacity="0.15" />
    <circle cx="35" cy="60" r="1" opacity="0.1" />
    <circle cx="45" cy="60" r="0.5" opacity="0.05" />
    <circle cx="55" cy="60" r="1.5" opacity="0.15" />
    <circle cx="65" cy="60" r="1" opacity="0.1" />
    <circle cx="75" cy="60" r="1.5" opacity="0.15" />
    <circle cx="85" cy="60" r="1" opacity="0.1" />
    <circle cx="95" cy="60" r="0.5" opacity="0.05" />
    
    <!-- Row 7 -->
    <circle cx="10" cy="70" r="1" opacity="0.1" />
    <circle cx="20" cy="70" r="1.5" opacity="0.15" />
    <circle cx="30" cy="70" r="1" opacity="0.1" />
    <circle cx="40" cy="70" r="0.5" opacity="0.05" />
    <circle cx="50" cy="70" r="1.5" opacity="0.15" />
    <circle cx="60" cy="70" r="1" opacity="0.1" />
    <circle cx="70" cy="70" r="1.5" opacity="0.15" />
    <circle cx="80" cy="70" r="1" opacity="0.1" />
    <circle cx="90" cy="70" r="0.5" opacity="0.05" />
    
    <!-- Row 8 -->
    <circle cx="5" cy="80" r="1.5" opacity="0.15" />
    <circle cx="15" cy="80" r="1" opacity="0.1" />
    <circle cx="25" cy="80" r="0.5" opacity="0.05" />
    <circle cx="35" cy="80" r="1.5" opacity="0.15" />
    <circle cx="45" cy="80" r="1" opacity="0.1" />
    <circle cx="55" cy="80" r="1.5" opacity="0.15" />
    <circle cx="65" cy="80" r="1" opacity="0.1" />
    <circle cx="75" cy="80" r="0.5" opacity="0.05" />
    <circle cx="85" cy="80" r="1.5" opacity="0.15" />
    <circle cx="95" cy="80" r="1" opacity="0.1" />
    
    <!-- Row 9 -->
    <circle cx="10" cy="90" r="1" opacity="0.1" />
    <circle cx="20" cy="90" r="0.5" opacity="0.05" />
    <circle cx="30" cy="90" r="1.5" opacity="0.15" />
    <circle cx="40" cy="90" r="1" opacity="0.1" />
    <circle cx="50" cy="90" r="1.5" opacity="0.15" />
    <circle cx="60" cy="90" r="1" opacity="0.1" />
    <circle cx="70" cy="90" r="0.5" opacity="0.05" />
    <circle cx="80" cy="90" r="1.5" opacity="0.15" />
    <circle cx="90" cy="90" r="1" opacity="0.1" />
  </g>
</svg> 