<svg width="64" height="64" viewBox="0 0 64 64" fill="none" xmlns="http://www.w3.org/2000/svg">
<rect width="64" height="64" rx="12.8" fill="#0544C7"/>
<path d="M43.5559 19.6059C43.5559 18.9437 43.0191 18.4069 42.3569 18.4069H40.4727C39.8105 18.4069 39.2737 18.9437 39.2737 19.6059V22.2608C39.2737 22.923 39.8105 23.4599 40.4727 23.4599H42.3569C43.0191 23.4599 43.5559 22.923 43.5559 22.2608V19.6059Z" fill="white"/>
<path d="M11.8371 24.6589C11.8371 23.9967 12.3739 23.4599 13.0361 23.4599H18.9456C19.6078 23.4599 20.1446 23.9967 20.1446 24.6589V27.3138C20.1446 27.976 19.6078 28.5129 18.9456 28.5129H13.2931C12.6309 28.5129 12.0941 29.0497 12.0941 29.7119V34.2757C12.0941 34.9379 12.6309 35.4747 13.2931 35.4747H18.9455C19.6077 35.4747 20.1445 36.0115 20.1445 36.6737V39.4506C20.1445 40.1128 19.6077 40.6496 18.9455 40.6496H12.8356C12.1734 40.6496 11.6366 40.1128 11.6366 39.4506V36.7346C11.6366 36.0724 11.0998 35.5356 10.4376 35.5356L7.98319 35.5356C7.321 35.5356 6.78418 34.9988 6.78418 34.3366V29.7118C6.78418 29.0496 7.321 28.5128 7.98319 28.5128H10.6381C11.3003 28.5128 11.8371 27.976 11.8371 27.3138V24.6589Z" fill="white"/>
<path d="M24.9407 24.6589C24.9407 23.9967 25.4775 23.4599 26.1397 23.4599H32.3917C33.0539 23.4599 33.5907 23.9967 33.5907 24.6589V27.3138C33.5907 27.976 33.0539 28.5129 32.3917 28.5129H26.3111C25.6489 28.5129 25.1121 29.0497 25.1121 29.7119V34.3276C25.1121 34.9898 25.6489 35.5267 26.3111 35.5267H32.3919C33.0541 35.5267 33.5909 36.0635 33.5909 36.7257V39.3986C33.5909 40.0608 33.0541 40.5976 32.3919 40.5976H25.9372C25.275 40.5976 24.7382 40.0608 24.7382 39.3986V36.7346C24.7382 36.0724 24.2014 35.5356 23.5392 35.5356L21.6864 35.5356C21.0242 35.5356 20.4873 34.9988 20.4873 34.3366V29.7118C20.4873 29.0496 21.0242 28.5128 21.6864 28.5128H23.7417C24.4039 28.5128 24.9407 27.976 24.9407 27.3138V24.6589Z" fill="white"/>
<path d="M47.3245 37.0772C47.3245 36.415 46.7876 35.8782 46.1254 35.8782H45.3544C44.6922 35.8782 44.1554 36.415 44.1554 37.0772V39.3896C44.1554 40.0518 43.6186 40.5886 42.9564 40.5886H40.8154C40.1532 40.5886 39.6164 41.1254 39.6164 41.7876V44.4426C39.6164 45.1048 39.0795 45.6416 38.4173 45.6416H35.5055C34.8433 45.6416 34.3064 45.1048 34.3064 44.4426V41.7876C34.3064 41.1254 34.8433 40.5886 35.5055 40.5886H38.0747C38.7369 40.5886 39.2737 40.0518 39.2737 39.3896V38.089C39.2737 37.4268 38.7369 36.8899 38.0747 36.8899L36.069 36.8899C35.4068 36.8899 34.87 36.3531 34.87 35.6909V24.9061C34.87 24.2439 35.4068 23.7071 36.069 23.7071H38.5278C39.19 23.7071 39.7269 24.2439 39.7269 24.9061V34.3366C39.7269 34.9988 40.2637 35.5356 40.9259 35.5356H42.3425C43.0047 35.5356 43.5415 34.9988 43.5415 34.3366V24.7445C43.5415 24.0823 44.0783 23.5455 44.7405 23.5455H46.6247C47.2869 23.5455 47.8237 24.0823 47.8237 24.7445V34.3366C47.8237 34.9988 48.3605 35.5356 49.0227 35.5356H50.5541C51.2163 35.5356 51.7532 34.9988 51.7532 34.3366V24.6748C51.7532 24.0126 52.29 23.4758 52.9522 23.4758L55.411 23.4758C56.0732 23.4758 56.61 24.0126 56.61 24.6748V35.6909C56.61 36.3531 56.0732 36.89 55.411 36.89L53.3195 36.8899C52.6573 36.8899 52.1205 37.4268 52.1205 38.089V39.3673C52.1205 40.0295 52.6573 40.5663 53.3195 40.5663H55.889C56.5512 40.5663 57.088 41.1031 57.088 41.7653V44.3815C57.088 45.0437 56.5512 45.5805 55.889 45.5805H53.1111C52.4489 45.5805 51.9121 45.0437 51.9121 44.3815V41.7876C51.9121 41.1254 51.3752 40.5886 50.713 40.5886H48.5235C47.8613 40.5886 47.3245 40.0518 47.3245 39.3896V37.0772Z" fill="white"/>
<path d="M20.1449 42.2158C20.1449 41.5536 20.6817 41.0168 21.3439 41.0168H23.9132C24.5754 41.0168 25.1122 41.5536 25.1122 42.2158V44.4426C25.1122 45.1048 24.5754 45.6416 23.9132 45.6416H21.3439C20.6817 45.6416 20.1449 45.1048 20.1449 44.4426V42.2158Z" fill="white"/>
<path d="M47.7525 19.6059C47.7525 18.9437 48.2894 18.4069 48.9516 18.4069H50.5788C51.241 18.4069 51.7778 18.9437 51.7778 19.6059V22.2608C51.7778 22.923 51.241 23.4599 50.5788 23.4599H48.9516C48.2894 23.4599 47.7525 22.923 47.7525 22.2608V19.6059Z" fill="white"/>
<path d="M25.112 19.6915C25.112 19.0293 24.5751 18.4925 23.9129 18.4925H21.258C20.5958 18.4925 20.059 19.0293 20.059 19.6915V22.0896C20.059 22.7518 20.5958 23.2886 21.258 23.2886H23.9129C24.5751 23.2886 25.112 22.7518 25.112 22.0896V19.6915Z" fill="white"/>
</svg>
