<svg width="904" height="99" viewBox="0 0 904 99" fill="none" xmlns="http://www.w3.org/2000/svg">
<path fill-rule="evenodd" clip-rule="evenodd" d="M107.456 13.2104C107.456 11.2753 105.887 9.70654 103.952 9.70654H98.4463C96.5112 9.70654 94.9425 11.2753 94.9425 13.2104V20.9689C94.9425 22.904 96.5112 24.4727 98.4463 24.4727H103.952C105.887 24.4727 107.456 22.904 107.456 20.9689V13.2104ZM14.7659 27.9765C14.7659 26.0414 16.3346 24.4727 18.2697 24.4727H35.5386C37.4737 24.4727 39.0424 26.0414 39.0424 27.9765V35.735C39.0424 37.6701 37.4737 39.2388 35.5386 39.2388H19.0208C17.0857 39.2388 15.517 40.8075 15.517 42.7426L15.517 56.2573C15.517 58.1924 13.9482 59.7611 12.0131 59.7611H3.50383C1.56872 59.7611 -8.45864e-08 58.1924 0 56.2573L5.90749e-07 42.7425C6.75336e-07 40.8074 1.56872 39.2387 3.50383 39.2387H11.262C13.1971 39.2387 14.7659 37.67 14.7659 35.7349V27.9765ZM53.0579 27.9765C53.0579 26.0414 54.6267 24.4727 56.5618 24.4727H74.8318C76.7669 24.4727 78.3356 26.0414 78.3356 27.9765V35.735C78.3356 37.6701 76.7669 39.2388 74.8317 39.2388H57.0627C55.1276 39.2388 53.5589 40.8075 53.5589 42.7426V56.2573C53.5589 58.1924 51.9902 59.7611 50.0551 59.7611H43.548C41.6128 59.7611 40.0441 58.1924 40.0441 56.2573V42.7425C40.0441 40.8074 41.6128 39.2387 43.548 39.2387H49.5541C51.4892 39.2387 53.0579 37.67 53.0579 35.7349V27.9765ZM39.0424 63.2651C39.0424 61.33 37.4737 59.7613 35.5386 59.7613H18.2697C16.3346 59.7613 14.7659 61.33 14.7659 63.2651V71.0236C14.7659 72.9587 16.3346 74.5274 18.2697 74.5274H35.5386C37.4737 74.5274 39.0424 72.9587 39.0424 71.0236V63.2651ZM52.5577 63.2651C52.5577 61.33 54.1264 59.7613 56.0615 59.7613H74.832C76.7671 59.7613 78.3358 61.33 78.3358 63.2651V71.0236C78.3358 72.9587 76.7671 74.5274 74.832 74.5274H56.0615C54.1264 74.5274 52.5577 72.9587 52.5577 71.0236V63.2651ZM118.469 64.2661C118.469 62.331 116.9 60.7623 114.965 60.7623H112.712C110.777 60.7623 109.208 62.331 109.208 64.2661V71.0236C109.208 72.9587 107.639 74.5274 105.704 74.5274H99.4476C97.5125 74.5274 95.9437 76.0961 95.9437 78.0312V85.7896C95.9437 87.7247 94.375 89.2934 92.4399 89.2934H83.9306C81.9955 89.2934 80.4268 87.7247 80.4268 85.7896V78.0311C80.4268 76.096 81.9955 74.5273 83.9306 74.5273H91.4387C93.3738 74.5273 94.9425 72.9586 94.9425 71.0234V67.2227C94.9425 65.2876 93.3738 63.7189 91.4387 63.7189H85.5774C83.6422 63.7189 82.0735 62.1501 82.0735 60.215L82.0735 28.6989C82.0735 26.7638 83.6422 25.1951 85.5774 25.1951L92.7627 25.1951C94.6978 25.1951 96.2665 26.7638 96.2665 28.6989V56.2574C96.2665 58.1925 97.8352 59.7612 99.7703 59.7612H103.91C105.845 59.7612 107.414 58.1925 107.414 56.2574V28.2267C107.414 26.2916 108.983 24.7229 110.918 24.7229H116.424C118.359 24.7229 119.928 26.2916 119.928 28.2267V56.2574C119.928 58.1925 121.497 59.7612 123.432 59.7612H127.907C129.842 59.7612 131.411 58.1925 131.411 56.2574V28.0231C131.411 26.088 132.979 24.5193 134.914 24.5193L142.1 24.5193C144.035 24.5193 145.604 26.088 145.604 28.0231V60.2151C145.604 62.1502 144.035 63.7189 142.1 63.7189H135.988C134.053 63.7189 132.484 65.2876 132.484 67.2227V71.0236C132.484 72.9587 130.915 74.5274 128.98 74.5274H121.973C120.037 74.5274 118.469 72.9587 118.469 71.0235V64.2661ZM39.0425 79.2825C39.0425 77.3474 40.6112 75.7787 42.5464 75.7787H50.0546C51.9897 75.7787 53.5584 77.3474 53.5584 79.2825V85.7896C53.5584 87.7247 51.9897 89.2935 50.0546 89.2935H42.5464C40.6112 89.2935 39.0425 87.7247 39.0425 85.7896V79.2825ZM132.484 78.0311C132.484 76.096 134.053 74.5273 135.988 74.5273H143.496C145.431 74.5273 147 76.096 147 78.0311V85.7896C147 87.7247 145.431 89.2934 143.496 89.2934H135.988C134.053 89.2934 132.484 87.7247 132.484 85.7896V78.0311ZM119.72 13.2104C119.72 11.2753 121.289 9.70654 123.224 9.70654H127.979C129.914 9.70654 131.483 11.2753 131.483 13.2104V20.9689C131.483 22.904 129.914 24.4727 127.979 24.4727H123.224C121.289 24.4727 119.72 22.904 119.72 20.9689V13.2104ZM53.5585 13.4607C53.5585 11.5256 51.9898 9.95685 50.0547 9.95685H42.2962C40.3611 9.95685 38.7924 11.5256 38.7924 13.4607V20.4683C38.7924 22.4035 40.3611 23.9722 42.2962 23.9722H50.0547C51.9898 23.9722 53.5585 22.4035 53.5585 20.4683V13.4607Z" fill="white"/>
<path d="M232.145 41.606C231.929 40.148 231.443 38.825 230.687 37.637C229.931 36.395 228.986 35.315 227.852 34.397C226.718 33.479 225.422 32.777 223.964 32.291C222.56 31.751 221.075 31.481 219.509 31.481C216.647 31.481 214.217 32.048 212.219 33.182C210.221 34.262 208.601 35.747 207.359 37.637C206.117 39.473 205.199 41.579 204.605 43.955C204.065 46.331 203.795 48.788 203.795 51.326C203.795 53.756 204.065 56.132 204.605 58.454C205.199 60.722 206.117 62.774 207.359 64.61C208.601 66.446 210.221 67.931 212.219 69.065C214.217 70.145 216.647 70.685 219.509 70.685C223.397 70.685 226.421 69.497 228.581 67.121C230.795 64.745 232.145 61.613 232.631 57.725H244.943C244.619 61.343 243.782 64.61 242.432 67.526C241.082 70.442 239.3 72.926 237.086 74.978C234.872 77.03 232.28 78.596 229.31 79.676C226.34 80.756 223.073 81.296 219.509 81.296C215.081 81.296 211.085 80.54 207.521 79.028C204.011 77.462 201.041 75.329 198.611 72.629C196.181 69.929 194.318 66.77 193.022 63.152C191.726 59.48 191.078 55.538 191.078 51.326C191.078 47.006 191.726 43.01 193.022 39.338C194.318 35.612 196.181 32.372 198.611 29.618C201.041 26.864 204.011 24.704 207.521 23.138C211.085 21.572 215.081 20.789 219.509 20.789C222.695 20.789 225.692 21.248 228.5 22.166C231.362 23.084 233.9 24.434 236.114 26.216C238.382 27.944 240.245 30.104 241.703 32.696C243.161 35.288 244.079 38.258 244.457 41.606H232.145ZM249.82 71.333L271.609 46.79H251.44V38.123H286.756V46.79L264.967 71.333H288.295V80H249.82V71.333ZM322.603 54.566C322.063 51.65 321.091 49.436 319.687 47.924C318.337 46.412 316.258 45.656 313.45 45.656C311.614 45.656 310.075 45.98 308.833 46.628C307.645 47.222 306.673 47.978 305.917 48.896C305.215 49.814 304.702 50.786 304.378 51.812C304.108 52.838 303.946 53.756 303.892 54.566H322.603ZM303.892 61.856C304.054 65.582 304.999 68.282 306.727 69.956C308.455 71.63 310.939 72.467 314.179 72.467C316.501 72.467 318.499 71.9 320.173 70.766C321.847 69.578 322.873 68.336 323.251 67.04H333.376C331.756 72.062 329.272 75.653 325.924 77.813C322.576 79.973 318.526 81.053 313.774 81.053C310.48 81.053 307.51 80.54 304.864 79.514C302.218 78.434 299.977 76.922 298.141 74.978C296.305 73.034 294.874 70.712 293.848 68.012C292.876 65.312 292.39 62.342 292.39 59.102C292.39 55.97 292.903 53.054 293.929 50.354C294.955 47.654 296.413 45.332 298.303 43.388C300.193 41.39 302.434 39.824 305.026 38.69C307.672 37.556 310.588 36.989 313.774 36.989C317.338 36.989 320.443 37.691 323.089 39.095C325.735 40.445 327.895 42.281 329.569 44.603C331.297 46.925 332.539 49.571 333.295 52.541C334.051 55.511 334.321 58.616 334.105 61.856H303.892ZM369.439 52.865C368.683 48.059 365.848 45.656 360.934 45.656C359.098 45.656 357.559 46.088 356.317 46.952C355.075 47.762 354.049 48.842 353.239 50.192C352.483 51.488 351.943 52.946 351.619 54.566C351.295 56.132 351.133 57.698 351.133 59.264C351.133 60.776 351.295 62.315 351.619 63.881C351.943 65.447 352.456 66.878 353.158 68.174C353.914 69.416 354.913 70.442 356.155 71.252C357.397 72.062 358.909 72.467 360.691 72.467C363.445 72.467 365.551 71.711 367.009 70.199C368.521 68.633 369.466 66.554 369.844 63.962H380.941C380.185 69.524 378.025 73.763 374.461 76.679C370.897 79.595 366.334 81.053 360.772 81.053C357.64 81.053 354.751 80.54 352.105 79.514C349.513 78.434 347.299 76.949 345.463 75.059C343.627 73.169 342.196 70.928 341.17 68.336C340.144 65.69 339.631 62.801 339.631 59.669C339.631 56.429 340.09 53.432 341.008 50.678C341.98 47.87 343.384 45.467 345.22 43.469C347.056 41.417 349.297 39.824 351.943 38.69C354.589 37.556 357.613 36.989 361.015 36.989C363.499 36.989 365.875 37.313 368.143 37.961C370.465 38.609 372.517 39.608 374.299 40.958C376.135 42.254 377.62 43.901 378.754 45.899C379.888 47.843 380.536 50.165 380.698 52.865H369.439ZM387.438 22.166H398.94V43.955H399.183C400.641 41.525 402.504 39.77 404.772 38.69C407.04 37.556 409.254 36.989 411.414 36.989C414.492 36.989 417.003 37.421 418.947 38.285C420.945 39.095 422.511 40.256 423.645 41.768C424.779 43.226 425.562 45.035 425.994 47.195C426.48 49.301 426.723 51.65 426.723 54.242V80H415.221V56.348C415.221 52.892 414.681 50.327 413.601 48.653C412.521 46.925 410.604 46.061 407.85 46.061C404.718 46.061 402.45 47.006 401.046 48.896C399.642 50.732 398.94 53.783 398.94 58.049V80H387.438V22.166ZM475.224 41.606C475.008 40.148 474.522 38.825 473.766 37.637C473.01 36.395 472.065 35.315 470.931 34.397C469.797 33.479 468.501 32.777 467.043 32.291C465.639 31.751 464.154 31.481 462.588 31.481C459.726 31.481 457.296 32.048 455.298 33.182C453.3 34.262 451.68 35.747 450.438 37.637C449.196 39.473 448.278 41.579 447.684 43.955C447.144 46.331 446.874 48.788 446.874 51.326C446.874 53.756 447.144 56.132 447.684 58.454C448.278 60.722 449.196 62.774 450.438 64.61C451.68 66.446 453.3 67.931 455.298 69.065C457.296 70.145 459.726 70.685 462.588 70.685C466.476 70.685 469.5 69.497 471.66 67.121C473.874 64.745 475.224 61.613 475.71 57.725H488.022C487.698 61.343 486.861 64.61 485.511 67.526C484.161 70.442 482.379 72.926 480.165 74.978C477.951 77.03 475.359 78.596 472.389 79.676C469.419 80.756 466.152 81.296 462.588 81.296C458.16 81.296 454.164 80.54 450.6 79.028C447.09 77.462 444.12 75.329 441.69 72.629C439.26 69.929 437.397 66.77 436.101 63.152C434.805 59.48 434.157 55.538 434.157 51.326C434.157 47.006 434.805 43.01 436.101 39.338C437.397 35.612 439.26 32.372 441.69 29.618C444.12 26.864 447.09 24.704 450.6 23.138C454.164 21.572 458.16 20.789 462.588 20.789C465.774 20.789 468.771 21.248 471.579 22.166C474.441 23.084 476.979 24.434 479.193 26.216C481.461 27.944 483.324 30.104 484.782 32.696C486.24 35.288 487.158 38.258 487.536 41.606H475.224ZM495.491 38.123H506.426V45.899H506.588C507.128 44.603 507.857 43.415 508.775 42.335C509.693 41.201 510.746 40.256 511.934 39.5C513.122 38.69 514.391 38.069 515.741 37.637C517.091 37.205 518.495 36.989 519.953 36.989C520.709 36.989 521.546 37.124 522.464 37.394V48.086C521.924 47.978 521.276 47.897 520.52 47.843C519.764 47.735 519.035 47.681 518.333 47.681C516.227 47.681 514.445 48.032 512.987 48.734C511.529 49.436 510.341 50.408 509.423 51.65C508.559 52.838 507.938 54.242 507.56 55.862C507.182 57.482 506.993 59.237 506.993 61.127V80H495.491V38.123ZM547.629 85.184C546.387 88.586 544.659 91.016 542.445 92.474C540.231 93.932 537.153 94.661 533.211 94.661C532.023 94.661 530.835 94.607 529.647 94.499C528.513 94.445 527.352 94.364 526.164 94.256V84.779C527.244 84.887 528.351 84.995 529.485 85.103C530.619 85.211 531.753 85.238 532.887 85.184C534.399 85.022 535.506 84.428 536.208 83.402C536.964 82.376 537.342 81.242 537.342 80C537.342 79.082 537.18 78.218 536.856 77.408L522.195 38.123H534.426L543.903 66.797H544.065L553.218 38.123H565.125L547.629 85.184ZM590.118 72.467C592.008 72.467 593.574 72.089 594.816 71.333C596.112 70.577 597.138 69.605 597.894 68.417C598.704 67.175 599.271 65.744 599.595 64.124C599.919 62.504 600.081 60.857 600.081 59.183C600.081 57.509 599.892 55.862 599.514 54.242C599.19 52.622 598.623 51.191 597.813 49.949C597.003 48.653 595.95 47.627 594.654 46.871C593.412 46.061 591.873 45.656 590.037 45.656C588.147 45.656 586.554 46.061 585.258 46.871C584.016 47.627 582.99 48.626 582.18 49.868C581.424 51.11 580.884 52.541 580.56 54.161C580.236 55.781 580.074 57.455 580.074 59.183C580.074 60.857 580.236 62.504 580.56 64.124C580.938 65.744 581.505 67.175 582.261 68.417C583.071 69.605 584.124 70.577 585.42 71.333C586.716 72.089 588.282 72.467 590.118 72.467ZM568.977 38.123H579.912V43.469H580.074C581.478 41.201 583.26 39.554 585.42 38.528C587.58 37.502 589.956 36.989 592.548 36.989C595.842 36.989 598.677 37.61 601.053 38.852C603.429 40.094 605.4 41.741 606.966 43.793C608.532 45.845 609.693 48.248 610.449 51.002C611.205 53.702 611.583 56.537 611.583 59.507C611.583 62.315 611.205 65.015 610.449 67.607C609.693 70.199 608.532 72.494 606.966 74.492C605.454 76.49 603.537 78.083 601.215 79.271C598.947 80.459 596.274 81.053 593.196 81.053C590.604 81.053 588.201 80.54 585.987 79.514C583.827 78.434 582.045 76.868 580.641 74.816H580.479V94.661H568.977V38.123ZM633.074 38.123H641.498V45.818H633.074V66.554C633.074 68.498 633.398 69.794 634.046 70.442C634.694 71.09 635.99 71.414 637.934 71.414C638.582 71.414 639.203 71.387 639.797 71.333C640.391 71.279 640.958 71.198 641.498 71.09V80C640.526 80.162 639.446 80.27 638.258 80.324C637.07 80.378 635.909 80.405 634.775 80.405C632.993 80.405 631.292 80.27 629.672 80C628.106 79.784 626.702 79.325 625.46 78.623C624.272 77.921 623.327 76.922 622.625 75.626C621.923 74.33 621.572 72.629 621.572 70.523V45.818H614.606V38.123H621.572V25.568H633.074V38.123ZM657.177 59.102C657.177 60.776 657.339 62.423 657.663 64.043C657.987 65.609 658.527 67.04 659.283 68.336C660.093 69.578 661.146 70.577 662.442 71.333C663.738 72.089 665.358 72.467 667.302 72.467C669.246 72.467 670.866 72.089 672.162 71.333C673.512 70.577 674.565 69.578 675.321 68.336C676.131 67.04 676.698 65.609 677.022 64.043C677.346 62.423 677.508 60.776 677.508 59.102C677.508 57.428 677.346 55.781 677.022 54.161C676.698 52.541 676.131 51.11 675.321 49.868C674.565 48.626 673.512 47.627 672.162 46.871C670.866 46.061 669.246 45.656 667.302 45.656C665.358 45.656 663.738 46.061 662.442 46.871C661.146 47.627 660.093 48.626 659.283 49.868C658.527 51.11 657.987 52.541 657.663 54.161C657.339 55.781 657.177 57.428 657.177 59.102ZM645.675 59.102C645.675 55.754 646.188 52.73 647.214 50.03C648.24 47.276 649.698 44.954 651.588 43.064C653.478 41.12 655.746 39.635 658.392 38.609C661.038 37.529 664.008 36.989 667.302 36.989C670.596 36.989 673.566 37.529 676.212 38.609C678.912 39.635 681.207 41.12 683.097 43.064C684.987 44.954 686.445 47.276 687.471 50.03C688.497 52.73 689.01 55.754 689.01 59.102C689.01 62.45 688.497 65.474 687.471 68.174C686.445 70.874 684.987 73.196 683.097 75.14C681.207 77.03 678.912 78.488 676.212 79.514C673.566 80.54 670.596 81.053 667.302 81.053C664.008 81.053 661.038 80.54 658.392 79.514C655.746 78.488 653.478 77.03 651.588 75.14C649.698 73.196 648.24 70.874 647.214 68.174C646.188 65.474 645.675 62.45 645.675 59.102ZM752.783 80H740.147L730.346 40.634H730.184L720.545 80H707.666L692.357 22.166H705.074L714.227 61.532H714.389L724.433 22.166H736.34L746.222 62.018H746.384L755.861 22.166H768.335L752.783 80ZM796.58 54.566C796.04 51.65 795.068 49.436 793.664 47.924C792.314 46.412 790.235 45.656 787.427 45.656C785.591 45.656 784.052 45.98 782.81 46.628C781.622 47.222 780.65 47.978 779.894 48.896C779.192 49.814 778.679 50.786 778.355 51.812C778.085 52.838 777.923 53.756 777.869 54.566H796.58ZM777.869 61.856C778.031 65.582 778.976 68.282 780.704 69.956C782.432 71.63 784.916 72.467 788.156 72.467C790.478 72.467 792.476 71.9 794.15 70.766C795.824 69.578 796.85 68.336 797.228 67.04H807.353C805.733 72.062 803.249 75.653 799.901 77.813C796.553 79.973 792.503 81.053 787.751 81.053C784.457 81.053 781.487 80.54 778.841 79.514C776.195 78.434 773.954 76.922 772.118 74.978C770.282 73.034 768.851 70.712 767.825 68.012C766.853 65.312 766.367 62.342 766.367 59.102C766.367 55.97 766.88 53.054 767.906 50.354C768.932 47.654 770.39 45.332 772.28 43.388C774.17 41.39 776.411 39.824 779.003 38.69C781.649 37.556 784.565 36.989 787.751 36.989C791.315 36.989 794.42 37.691 797.066 39.095C799.712 40.445 801.872 42.281 803.546 44.603C805.274 46.925 806.516 49.571 807.272 52.541C808.028 55.511 808.298 58.616 808.082 61.856H777.869ZM843.091 54.566C842.551 51.65 841.579 49.436 840.175 47.924C838.825 46.412 836.746 45.656 833.938 45.656C832.102 45.656 830.563 45.98 829.321 46.628C828.133 47.222 827.161 47.978 826.405 48.896C825.703 49.814 825.19 50.786 824.866 51.812C824.596 52.838 824.434 53.756 824.38 54.566H843.091ZM824.38 61.856C824.542 65.582 825.487 68.282 827.215 69.956C828.943 71.63 831.427 72.467 834.667 72.467C836.989 72.467 838.987 71.9 840.661 70.766C842.335 69.578 843.361 68.336 843.739 67.04H853.864C852.244 72.062 849.76 75.653 846.412 77.813C843.064 79.973 839.014 81.053 834.262 81.053C830.968 81.053 827.998 80.54 825.352 79.514C822.706 78.434 820.465 76.922 818.629 74.978C816.793 73.034 815.362 70.712 814.336 68.012C813.364 65.312 812.878 62.342 812.878 59.102C812.878 55.97 813.391 53.054 814.417 50.354C815.443 47.654 816.901 45.332 818.791 43.388C820.681 41.39 822.922 39.824 825.514 38.69C828.16 37.556 831.076 36.989 834.262 36.989C837.826 36.989 840.931 37.691 843.577 39.095C846.223 40.445 848.383 42.281 850.057 44.603C851.785 46.925 853.027 49.571 853.783 52.541C854.539 55.511 854.809 58.616 854.593 61.856H824.38ZM862.468 22.166H873.97V53.189L888.469 38.123H902.077L886.282 53.513L903.859 80H889.927L878.425 61.289L873.97 65.582V80H862.468V22.166Z" fill="white"/>
</svg>
