<svg width="100" height="100" xmlns="http://www.w3.org/2000/svg">
  <!-- Pixelated logo similar to the one in the cover image -->
  <g fill="#FFFFFF">
    <!-- Checkered pattern representing the logo -->
    <rect x="10" y="10" width="10" height="10" />
    <rect x="20" y="10" width="10" height="10" />
    <rect x="30" y="10" width="10" height="10" />
    <rect x="50" y="10" width="10" height="10" />
    <rect x="60" y="10" width="10" height="10" />
    <rect x="80" y="10" width="10" height="10" />
    
    <rect x="10" y="20" width="10" height="10" />
    <rect x="30" y="20" width="10" height="10" />
    <rect x="50" y="20" width="10" height="10" />
    <rect x="70" y="20" width="10" height="10" />
    
    <rect x="10" y="30" width="10" height="10" />
    <rect x="20" y="30" width="10" height="10" />
    <rect x="30" y="30" width="10" height="10" />
    <rect x="50" y="30" width="10" height="10" />
    <rect x="60" y="30" width="10" height="10" />
    <rect x="70" y="30" width="10" height="10" />
    <rect x="80" y="30" width="10" height="10" />
    
    <rect x="30" y="40" width="10" height="10" />
    <rect x="70" y="40" width="10" height="10" />
    
    <rect x="10" y="50" width="10" height="10" />
    <rect x="20" y="50" width="10" height="10" />
    <rect x="30" y="50" width="10" height="10" />
    <rect x="50" y="50" width="10" height="10" />
    <rect x="60" y="50" width="10" height="10" />
    <rect x="70" y="50" width="10" height="10" />
    
    <rect x="10" y="60" width="10" height="10" />
    <rect x="30" y="60" width="10" height="10" />
    <rect x="50" y="60" width="10" height="10" />
    <rect x="70" y="60" width="10" height="10" />
    
    <rect x="10" y="70" width="10" height="10" />
    <rect x="30" y="70" width="10" height="10" />
    <rect x="50" y="70" width="10" height="10" />
    <rect x="70" y="70" width="10" height="10" />
    <rect x="80" y="70" width="10" height="10" />
    
    <rect x="30" y="80" width="10" height="10" />
    <rect x="50" y="80" width="10" height="10" />
    <rect x="80" y="80" width="10" height="10" />
  </g>
</svg> 